<mxfile host="app.diagrams.net" modified="2023-12-13T22:39:42.528Z" agent="Mozilla/5.0 (Windows NT 10.0; Win64; x64) AppleWebKit/537.36 (KHTML, like Gecko) Chrome/118.0.0.0 Safari/537.36 OPR/104.0.0.0" etag="RqQJaw22T5PCBtWV-Icu" version="22.1.8" type="google">
  <diagram name="Page-1" id="bQlFoXeFIzhjqcbI0hlm">
    <mxGraphModel grid="1" page="1" gridSize="10" guides="1" tooltips="1" connect="1" arrows="1" fold="1" pageScale="1" pageWidth="827" pageHeight="1169" math="0" shadow="0">
      <root>
        <mxCell id="0" />
        <mxCell id="1" parent="0" />
        <mxCell id="DApqZza5zwTrvH2rNMvA-1" value="&lt;div&gt;id_client&lt;/div&gt;" style="rounded=1;whiteSpace=wrap;html=1;" vertex="1" parent="1">
          <mxGeometry x="100" y="290" width="120" height="60" as="geometry" />
        </mxCell>
        <mxCell id="k4KGGuc-KvDLvLoHJD1s-4" value="" style="endArrow=classic;html=1;rounded=0;entryX=0.667;entryY=0;entryDx=0;entryDy=0;entryPerimeter=0;exitX=0.25;exitY=1;exitDx=0;exitDy=0;" edge="1" parent="1" source="DApqZza5zwTrvH2rNMvA-1" target="k4KGGuc-KvDLvLoHJD1s-5">
          <mxGeometry width="50" height="50" relative="1" as="geometry">
            <mxPoint x="20" y="440" as="sourcePoint" />
            <mxPoint x="70" y="390" as="targetPoint" />
          </mxGeometry>
        </mxCell>
        <mxCell id="k4KGGuc-KvDLvLoHJD1s-5" value="&lt;p id=&quot;docs-internal-guid-d7baeff3-7fff-69da-0706-2c5c7937c236&quot; style=&quot;line-height:1.38;margin-top:0pt;margin-bottom:0pt;&quot; dir=&quot;ltr&quot;&gt;Nom_client&lt;br&gt;&lt;/p&gt;" style="text;html=1;align=center;verticalAlign=middle;resizable=0;points=[];autosize=1;strokeColor=none;fillColor=none;" vertex="1" parent="1">
          <mxGeometry x="40" y="410" width="90" height="30" as="geometry" />
        </mxCell>
        <mxCell id="k4KGGuc-KvDLvLoHJD1s-6" value="&lt;div&gt;Prenom_client&lt;/div&gt;" style="text;html=1;align=center;verticalAlign=middle;resizable=0;points=[];autosize=1;strokeColor=none;fillColor=none;" vertex="1" parent="1">
          <mxGeometry x="160" y="410" width="100" height="30" as="geometry" />
        </mxCell>
        <mxCell id="k4KGGuc-KvDLvLoHJD1s-7" value="" style="endArrow=classic;html=1;rounded=0;exitX=0.75;exitY=1;exitDx=0;exitDy=0;" edge="1" parent="1" source="DApqZza5zwTrvH2rNMvA-1" target="k4KGGuc-KvDLvLoHJD1s-6">
          <mxGeometry width="50" height="50" relative="1" as="geometry">
            <mxPoint x="190" y="410" as="sourcePoint" />
            <mxPoint x="240" y="360" as="targetPoint" />
          </mxGeometry>
        </mxCell>
        <mxCell id="k4KGGuc-KvDLvLoHJD1s-8" value="id_utilisateur " style="rounded=1;whiteSpace=wrap;html=1;" vertex="1" parent="1">
          <mxGeometry x="340" y="470" width="120" height="60" as="geometry" />
        </mxCell>
        <mxCell id="k4KGGuc-KvDLvLoHJD1s-9" value="&lt;p id=&quot;docs-internal-guid-2be4532a-7fff-3dfd-170b-5bacfdc3f71d&quot; style=&quot;line-height:1.38;margin-top:0pt;margin-bottom:0pt;&quot; dir=&quot;ltr&quot;&gt;nom &lt;br&gt;&lt;/p&gt;" style="text;html=1;align=center;verticalAlign=middle;resizable=0;points=[];autosize=1;strokeColor=none;fillColor=none;" vertex="1" parent="1">
          <mxGeometry x="310" y="600" width="50" height="30" as="geometry" />
        </mxCell>
        <mxCell id="k4KGGuc-KvDLvLoHJD1s-10" value="prenom " style="text;html=1;align=center;verticalAlign=middle;resizable=0;points=[];autosize=1;strokeColor=none;fillColor=none;" vertex="1" parent="1">
          <mxGeometry x="370" y="600" width="70" height="30" as="geometry" />
        </mxCell>
        <mxCell id="k4KGGuc-KvDLvLoHJD1s-12" value="mdp " style="text;html=1;align=center;verticalAlign=middle;resizable=0;points=[];autosize=1;strokeColor=none;fillColor=none;" vertex="1" parent="1">
          <mxGeometry x="510" y="540" width="50" height="30" as="geometry" />
        </mxCell>
        <mxCell id="k4KGGuc-KvDLvLoHJD1s-13" value="role" style="text;html=1;align=center;verticalAlign=middle;resizable=0;points=[];autosize=1;strokeColor=none;fillColor=none;" vertex="1" parent="1">
          <mxGeometry x="460" y="600" width="40" height="30" as="geometry" />
        </mxCell>
        <mxCell id="k4KGGuc-KvDLvLoHJD1s-22" value="" style="endArrow=classic;html=1;rounded=0;exitX=0.25;exitY=1;exitDx=0;exitDy=0;" edge="1" parent="1" source="k4KGGuc-KvDLvLoHJD1s-8" target="k4KGGuc-KvDLvLoHJD1s-9">
          <mxGeometry width="50" height="50" relative="1" as="geometry">
            <mxPoint x="384" y="590" as="sourcePoint" />
            <mxPoint x="434" y="540" as="targetPoint" />
          </mxGeometry>
        </mxCell>
        <mxCell id="k4KGGuc-KvDLvLoHJD1s-23" value="" style="endArrow=classic;html=1;rounded=0;exitX=0.75;exitY=1;exitDx=0;exitDy=0;entryX=0.05;entryY=-0.067;entryDx=0;entryDy=0;entryPerimeter=0;" edge="1" parent="1" source="k4KGGuc-KvDLvLoHJD1s-8" target="k4KGGuc-KvDLvLoHJD1s-13">
          <mxGeometry width="50" height="50" relative="1" as="geometry">
            <mxPoint x="469" y="520" as="sourcePoint" />
            <mxPoint x="440" y="590" as="targetPoint" />
          </mxGeometry>
        </mxCell>
        <mxCell id="k4KGGuc-KvDLvLoHJD1s-24" value="" style="endArrow=classic;html=1;rounded=0;exitX=0.25;exitY=1;exitDx=0;exitDy=0;entryX=0.371;entryY=0.1;entryDx=0;entryDy=0;entryPerimeter=0;" edge="1" parent="1" target="k4KGGuc-KvDLvLoHJD1s-10">
          <mxGeometry width="50" height="50" relative="1" as="geometry">
            <mxPoint x="398" y="530" as="sourcePoint" />
            <mxPoint x="369" y="600" as="targetPoint" />
          </mxGeometry>
        </mxCell>
        <mxCell id="k4KGGuc-KvDLvLoHJD1s-26" value="" style="endArrow=classic;html=1;rounded=0;exitX=0.75;exitY=1;exitDx=0;exitDy=0;" edge="1" parent="1" target="k4KGGuc-KvDLvLoHJD1s-12">
          <mxGeometry width="50" height="50" relative="1" as="geometry">
            <mxPoint x="460" y="521" as="sourcePoint" />
            <mxPoint x="492" y="589" as="targetPoint" />
          </mxGeometry>
        </mxCell>
        <mxCell id="k4KGGuc-KvDLvLoHJD1s-27" value="&lt;div&gt;id_composante &lt;/div&gt;" style="rounded=1;whiteSpace=wrap;html=1;" vertex="1" parent="1">
          <mxGeometry x="90" y="10" width="120" height="60" as="geometry" />
        </mxCell>
        <mxCell id="k4KGGuc-KvDLvLoHJD1s-28" value="" style="endArrow=classic;html=1;rounded=0;entryX=0.792;entryY=-0.1;entryDx=0;entryDy=0;entryPerimeter=0;exitX=0.25;exitY=1;exitDx=0;exitDy=0;" edge="1" parent="1" source="k4KGGuc-KvDLvLoHJD1s-27" target="k4KGGuc-KvDLvLoHJD1s-29">
          <mxGeometry width="50" height="50" relative="1" as="geometry">
            <mxPoint x="20" y="200" as="sourcePoint" />
            <mxPoint x="70" y="150" as="targetPoint" />
          </mxGeometry>
        </mxCell>
        <mxCell id="k4KGGuc-KvDLvLoHJD1s-29" value="&lt;p id=&quot;docs-internal-guid-d7baeff3-7fff-69da-0706-2c5c7937c236&quot; style=&quot;line-height:1.38;margin-top:0pt;margin-bottom:0pt;&quot; dir=&quot;ltr&quot;&gt;nom_composante &lt;/p&gt;" style="text;html=1;align=center;verticalAlign=middle;resizable=0;points=[];autosize=1;strokeColor=none;fillColor=none;" vertex="1" parent="1">
          <mxGeometry x="25" y="170" width="120" height="30" as="geometry" />
        </mxCell>
        <mxCell id="k4KGGuc-KvDLvLoHJD1s-31" value="" style="endArrow=classic;html=1;rounded=0;exitX=0.817;exitY=1.033;exitDx=0;exitDy=0;entryX=0.75;entryY=0;entryDx=0;entryDy=0;exitPerimeter=0;" edge="1" parent="1" source="k4KGGuc-KvDLvLoHJD1s-27" target="DApqZza5zwTrvH2rNMvA-1">
          <mxGeometry width="50" height="50" relative="1" as="geometry">
            <mxPoint x="190" y="170" as="sourcePoint" />
            <mxPoint x="204.70588235294122" y="170" as="targetPoint" />
          </mxGeometry>
        </mxCell>
        <mxCell id="bZJje_1F7fDVMLLboon2-3" style="edgeStyle=orthogonalEdgeStyle;rounded=0;orthogonalLoop=1;jettySize=auto;html=1;entryX=0.5;entryY=0;entryDx=0;entryDy=0;" edge="1" parent="1" source="k4KGGuc-KvDLvLoHJD1s-38" target="bZJje_1F7fDVMLLboon2-1">
          <mxGeometry relative="1" as="geometry">
            <Array as="points">
              <mxPoint x="1000" y="300" />
            </Array>
          </mxGeometry>
        </mxCell>
        <mxCell id="k4KGGuc-KvDLvLoHJD1s-38" value="id_prestataire " style="rounded=1;whiteSpace=wrap;html=1;" vertex="1" parent="1">
          <mxGeometry x="570" y="260" width="120" height="60" as="geometry" />
        </mxCell>
        <mxCell id="k4KGGuc-KvDLvLoHJD1s-39" value="" style="endArrow=classic;html=1;rounded=0;entryX=0.75;entryY=0;entryDx=0;entryDy=0;exitX=0.25;exitY=1;exitDx=0;exitDy=0;" edge="1" parent="1" source="k4KGGuc-KvDLvLoHJD1s-38" target="k4KGGuc-KvDLvLoHJD1s-8">
          <mxGeometry width="50" height="50" relative="1" as="geometry">
            <mxPoint x="500" y="400" as="sourcePoint" />
            <mxPoint x="580.03" y="370" as="targetPoint" />
          </mxGeometry>
        </mxCell>
        <mxCell id="k4KGGuc-KvDLvLoHJD1s-41" value="nom_prestataire " style="text;html=1;align=center;verticalAlign=middle;resizable=0;points=[];autosize=1;strokeColor=none;fillColor=none;" vertex="1" parent="1">
          <mxGeometry x="635" y="370" width="110" height="30" as="geometry" />
        </mxCell>
        <mxCell id="k4KGGuc-KvDLvLoHJD1s-42" value="" style="endArrow=classic;html=1;rounded=0;exitX=0.75;exitY=1;exitDx=0;exitDy=0;" edge="1" parent="1" source="k4KGGuc-KvDLvLoHJD1s-38" target="k4KGGuc-KvDLvLoHJD1s-41">
          <mxGeometry width="50" height="50" relative="1" as="geometry">
            <mxPoint x="670" y="370" as="sourcePoint" />
            <mxPoint x="720" y="320" as="targetPoint" />
          </mxGeometry>
        </mxCell>
        <mxCell id="bZJje_1F7fDVMLLboon2-4" style="edgeStyle=orthogonalEdgeStyle;rounded=0;orthogonalLoop=1;jettySize=auto;html=1;exitX=0;exitY=0.75;exitDx=0;exitDy=0;entryX=0.5;entryY=1;entryDx=0;entryDy=0;" edge="1" parent="1" target="bZJje_1F7fDVMLLboon2-1">
          <mxGeometry relative="1" as="geometry">
            <mxPoint x="1010" y="780" as="targetPoint" />
            <mxPoint x="370" y="150" as="sourcePoint" />
            <Array as="points">
              <mxPoint x="260" y="150" />
              <mxPoint x="260" y="760" />
              <mxPoint x="1000" y="760" />
            </Array>
          </mxGeometry>
        </mxCell>
        <mxCell id="k4KGGuc-KvDLvLoHJD1s-44" value="id_interlocuteur " style="rounded=1;whiteSpace=wrap;html=1;" vertex="1" parent="1">
          <mxGeometry x="370" y="115" width="120" height="60" as="geometry" />
        </mxCell>
        <mxCell id="k4KGGuc-KvDLvLoHJD1s-47" value="" style="endArrow=classic;html=1;rounded=0;" edge="1" parent="1" source="k4KGGuc-KvDLvLoHJD1s-44" target="k4KGGuc-KvDLvLoHJD1s-27">
          <mxGeometry width="50" height="50" relative="1" as="geometry">
            <mxPoint x="387" y="190" as="sourcePoint" />
            <mxPoint x="370" y="380" as="targetPoint" />
          </mxGeometry>
        </mxCell>
        <mxCell id="k4KGGuc-KvDLvLoHJD1s-48" value="" style="endArrow=classic;html=1;rounded=0;exitX=0.75;exitY=1;exitDx=0;exitDy=0;" edge="1" parent="1" source="k4KGGuc-KvDLvLoHJD1s-44" target="k4KGGuc-KvDLvLoHJD1s-8">
          <mxGeometry width="50" height="50" relative="1" as="geometry">
            <mxPoint x="457" y="180" as="sourcePoint" />
            <mxPoint x="440" y="370" as="targetPoint" />
          </mxGeometry>
        </mxCell>
        <mxCell id="k4KGGuc-KvDLvLoHJD1s-49" value="id_BDL " style="rounded=1;whiteSpace=wrap;html=1;" vertex="1" parent="1">
          <mxGeometry x="590" y="540" width="120" height="60" as="geometry" />
        </mxCell>
        <mxCell id="k4KGGuc-KvDLvLoHJD1s-50" value="Commentaires " style="text;html=1;align=center;verticalAlign=middle;resizable=0;points=[];autosize=1;strokeColor=none;fillColor=none;" vertex="1" parent="1">
          <mxGeometry x="480" y="670" width="110" height="30" as="geometry" />
        </mxCell>
        <mxCell id="k4KGGuc-KvDLvLoHJD1s-51" value="Heures_travaillees " style="text;html=1;align=center;verticalAlign=middle;resizable=0;points=[];autosize=1;strokeColor=none;fillColor=none;" vertex="1" parent="1">
          <mxGeometry x="590" y="670" width="130" height="30" as="geometry" />
        </mxCell>
        <mxCell id="k4KGGuc-KvDLvLoHJD1s-53" value="date " style="text;html=1;align=center;verticalAlign=middle;resizable=0;points=[];autosize=1;strokeColor=none;fillColor=none;" vertex="1" parent="1">
          <mxGeometry x="760" y="610" width="50" height="30" as="geometry" />
        </mxCell>
        <mxCell id="k4KGGuc-KvDLvLoHJD1s-54" value="heure " style="text;html=1;align=center;verticalAlign=middle;resizable=0;points=[];autosize=1;strokeColor=none;fillColor=none;" vertex="1" parent="1">
          <mxGeometry x="700" y="670" width="60" height="30" as="geometry" />
        </mxCell>
        <mxCell id="k4KGGuc-KvDLvLoHJD1s-55" value="" style="endArrow=classic;html=1;rounded=0;exitX=0.25;exitY=1;exitDx=0;exitDy=0;" edge="1" parent="1" source="k4KGGuc-KvDLvLoHJD1s-49" target="k4KGGuc-KvDLvLoHJD1s-50">
          <mxGeometry width="50" height="50" relative="1" as="geometry">
            <mxPoint x="634" y="660" as="sourcePoint" />
            <mxPoint x="684" y="610" as="targetPoint" />
          </mxGeometry>
        </mxCell>
        <mxCell id="k4KGGuc-KvDLvLoHJD1s-56" value="" style="endArrow=classic;html=1;rounded=0;exitX=0.75;exitY=1;exitDx=0;exitDy=0;entryX=0.05;entryY=-0.067;entryDx=0;entryDy=0;entryPerimeter=0;" edge="1" parent="1" source="k4KGGuc-KvDLvLoHJD1s-49" target="k4KGGuc-KvDLvLoHJD1s-54">
          <mxGeometry width="50" height="50" relative="1" as="geometry">
            <mxPoint x="719" y="590" as="sourcePoint" />
            <mxPoint x="690" y="660" as="targetPoint" />
          </mxGeometry>
        </mxCell>
        <mxCell id="k4KGGuc-KvDLvLoHJD1s-57" value="" style="endArrow=classic;html=1;rounded=0;exitX=0.25;exitY=1;exitDx=0;exitDy=0;entryX=0.371;entryY=0.1;entryDx=0;entryDy=0;entryPerimeter=0;" edge="1" parent="1" target="k4KGGuc-KvDLvLoHJD1s-51">
          <mxGeometry width="50" height="50" relative="1" as="geometry">
            <mxPoint x="648" y="600" as="sourcePoint" />
            <mxPoint x="619" y="670" as="targetPoint" />
          </mxGeometry>
        </mxCell>
        <mxCell id="k4KGGuc-KvDLvLoHJD1s-58" value="" style="endArrow=classic;html=1;rounded=0;exitX=0.5;exitY=0;exitDx=0;exitDy=0;" edge="1" parent="1" source="k4KGGuc-KvDLvLoHJD1s-49" target="k4KGGuc-KvDLvLoHJD1s-38">
          <mxGeometry width="50" height="50" relative="1" as="geometry">
            <mxPoint x="728" y="532" as="sourcePoint" />
            <mxPoint x="770" y="562.0588235294117" as="targetPoint" />
          </mxGeometry>
        </mxCell>
        <mxCell id="k4KGGuc-KvDLvLoHJD1s-59" value="" style="endArrow=classic;html=1;rounded=0;exitX=0.75;exitY=1;exitDx=0;exitDy=0;" edge="1" parent="1" target="k4KGGuc-KvDLvLoHJD1s-53">
          <mxGeometry width="50" height="50" relative="1" as="geometry">
            <mxPoint x="710" y="591" as="sourcePoint" />
            <mxPoint x="742" y="659" as="targetPoint" />
          </mxGeometry>
        </mxCell>
        <mxCell id="k4KGGuc-KvDLvLoHJD1s-61" value="Valide " style="text;html=1;align=center;verticalAlign=middle;resizable=0;points=[];autosize=1;strokeColor=none;fillColor=none;" vertex="1" parent="1">
          <mxGeometry x="760" y="518" width="60" height="30" as="geometry" />
        </mxCell>
        <mxCell id="k4KGGuc-KvDLvLoHJD1s-62" value="" style="endArrow=classic;html=1;rounded=0;" edge="1" parent="1" source="k4KGGuc-KvDLvLoHJD1s-49" target="k4KGGuc-KvDLvLoHJD1s-61">
          <mxGeometry width="50" height="50" relative="1" as="geometry">
            <mxPoint x="722" y="480" as="sourcePoint" />
            <mxPoint x="745" y="530" as="targetPoint" />
          </mxGeometry>
        </mxCell>
        <mxCell id="k4KGGuc-KvDLvLoHJD1s-65" value="id_commercial" style="rounded=1;whiteSpace=wrap;html=1;" vertex="1" parent="1">
          <mxGeometry x="515" y="10" width="120" height="60" as="geometry" />
        </mxCell>
        <mxCell id="k4KGGuc-KvDLvLoHJD1s-66" value="" style="endArrow=classic;html=1;rounded=0;exitX=1;exitY=0.5;exitDx=0;exitDy=0;" edge="1" parent="1" source="k4KGGuc-KvDLvLoHJD1s-65" target="k4KGGuc-KvDLvLoHJD1s-38">
          <mxGeometry width="50" height="50" relative="1" as="geometry">
            <mxPoint x="130" y="550" as="sourcePoint" />
            <mxPoint x="500" y="400" as="targetPoint" />
            <Array as="points">
              <mxPoint x="880" y="40" />
              <mxPoint x="880" y="290" />
            </Array>
          </mxGeometry>
        </mxCell>
        <mxCell id="k4KGGuc-KvDLvLoHJD1s-67" value="" style="endArrow=classic;html=1;rounded=0;exitX=0;exitY=0.5;exitDx=0;exitDy=0;entryX=1;entryY=0.5;entryDx=0;entryDy=0;" edge="1" parent="1" source="k4KGGuc-KvDLvLoHJD1s-65" target="k4KGGuc-KvDLvLoHJD1s-27">
          <mxGeometry width="50" height="50" relative="1" as="geometry">
            <mxPoint x="-90" y="376" as="sourcePoint" />
            <mxPoint x="350" y="200" as="targetPoint" />
            <Array as="points">
              <mxPoint x="460" y="40" />
            </Array>
          </mxGeometry>
        </mxCell>
        <mxCell id="k4KGGuc-KvDLvLoHJD1s-69" value="id_gestionnaire" style="rounded=1;whiteSpace=wrap;html=1;" vertex="1" parent="1">
          <mxGeometry x="580" y="115" width="120" height="60" as="geometry" />
        </mxCell>
        <mxCell id="k4KGGuc-KvDLvLoHJD1s-71" value="" style="endArrow=classic;html=1;rounded=0;" edge="1" parent="1" source="k4KGGuc-KvDLvLoHJD1s-69" target="k4KGGuc-KvDLvLoHJD1s-38">
          <mxGeometry width="50" height="50" relative="1" as="geometry">
            <mxPoint x="650" y="190" as="sourcePoint" />
            <mxPoint x="673" y="240" as="targetPoint" />
          </mxGeometry>
        </mxCell>
        <mxCell id="k4KGGuc-KvDLvLoHJD1s-72" value="&lt;div&gt;id_administrateur&lt;/div&gt;" style="rounded=1;whiteSpace=wrap;html=1;" vertex="1" parent="1">
          <mxGeometry x="285" y="230" width="120" height="60" as="geometry" />
        </mxCell>
        <mxCell id="k4KGGuc-KvDLvLoHJD1s-73" value="" style="endArrow=classic;html=1;rounded=0;entryX=0.25;entryY=0;entryDx=0;entryDy=0;" edge="1" parent="1" target="k4KGGuc-KvDLvLoHJD1s-8">
          <mxGeometry width="50" height="50" relative="1" as="geometry">
            <mxPoint x="366" y="290" as="sourcePoint" />
            <mxPoint x="360" y="375" as="targetPoint" />
          </mxGeometry>
        </mxCell>
        <mxCell id="bZJje_1F7fDVMLLboon2-10" style="edgeStyle=orthogonalEdgeStyle;rounded=0;orthogonalLoop=1;jettySize=auto;html=1;exitX=1;exitY=0.5;exitDx=0;exitDy=0;entryX=0.883;entryY=0.967;entryDx=0;entryDy=0;entryPerimeter=0;" edge="1" parent="1">
          <mxGeometry relative="1" as="geometry">
            <mxPoint x="1037.02" y="465.56" as="sourcePoint" />
            <mxPoint x="840" y="430" as="targetPoint" />
          </mxGeometry>
        </mxCell>
        <mxCell id="bZJje_1F7fDVMLLboon2-1" value="id_absence" style="rounded=1;whiteSpace=wrap;html=1;" vertex="1" parent="1">
          <mxGeometry x="940" y="450" width="120" height="60" as="geometry" />
        </mxCell>
        <mxCell id="bZJje_1F7fDVMLLboon2-9" value="HeureDébut" style="text;html=1;strokeColor=none;fillColor=none;align=center;verticalAlign=middle;whiteSpace=wrap;rounded=0;" vertex="1" parent="1">
          <mxGeometry x="810" y="400" width="60" height="30" as="geometry" />
        </mxCell>
        <mxCell id="bZJje_1F7fDVMLLboon2-12" value="HeureFin" style="text;html=1;strokeColor=none;fillColor=none;align=center;verticalAlign=middle;whiteSpace=wrap;rounded=0;" vertex="1" parent="1">
          <mxGeometry x="870" y="570" width="60" height="30" as="geometry" />
        </mxCell>
        <mxCell id="bZJje_1F7fDVMLLboon2-13" value="" style="endArrow=classic;html=1;rounded=0;exitX=0;exitY=1;exitDx=0;exitDy=0;entryX=0.25;entryY=0;entryDx=0;entryDy=0;" edge="1" parent="1" source="bZJje_1F7fDVMLLboon2-1" target="bZJje_1F7fDVMLLboon2-12">
          <mxGeometry width="50" height="50" relative="1" as="geometry">
            <mxPoint x="890" y="518" as="sourcePoint" />
            <mxPoint x="940" y="541" as="targetPoint" />
          </mxGeometry>
        </mxCell>
      </root>
    </mxGraphModel>
  </diagram>
</mxfile>
